<?xml version="1.0" encoding="UTF-8"?>
<svg class="overflow-visible " fill="white" height="10" version="1.1" viewBox="0 0 51 20" xmlns="http://www.w3.org/2000/svg"><path d="M0,20 L12.4794188,9.66197488 L4.97032525,0 L12.3721384,0 L16.3412804,5.54933974 C16.6988738,6.05636591 16.877659,6.39439103 17.0206918,6.81692819 L17.1279491,6.81692819 C17.4140146,6.42256939 17.771585,6.08454427 18.3794685,5.54933974 L24.7085474,0 L26.3651767,0 L28.4274453,3.27637807 L20.5964418,9.85915428 L25.8174945,16.6202092 L25.0593955,20 L20.9539661,20 L16.7703787,14.2253485 C16.3413034,13.605632 16.0194624,13.1830948 15.9122051,12.7323793 L15.8406772,12.7323793 C15.4473544,13.1830948 14.9467052,13.6619657 14.3388217,14.1971702 L7.75942962,20 L0,20 Z" class=""></path><path d="M26.1220694,20 L29.5453708,3.47130136 L27.2830451,0 L30.2643332,0 L41.6307531,0 C46.0382249,0 50.9095806,1.21125477 50.9095806,5.97185388 C50.9095806,9.38028344 48.4241763,13.1267611 40.4377774,13.1267611 L33.6112032,13.1267611 L32.1864007,20 L26.1220694,20 Z M44.4474372,6.22538998 C44.4474372,4.02814612 42.5587509,3.60560897 40.5703814,3.60560897 L35.5995727,3.60560897 L34.340295,9.57748586 L39.3774057,9.57748586 C43.4202166,9.57748586 44.4474372,7.77466987 44.4474372,6.22538998 Z" class=""></path></svg>
